<svg xmlns="http://www.w3.org/2000/svg"
shape-rendering="auto"
width="720" height="330" viewBox="150 350 720 330">
  <metadata>null</metadata>

<path d="
M 248.471 468.025
C 245.025 467.391 243.196 463.51 240.247 462.082
C 240.422 461.885 238.498 460.129 238.185 459.826
C 235.672 457.388 232.468 454.934 229.147 453.743
C 226.839 452.127 223.48 451.228 220.825 450.322
C 219.761 449.959 218.423 449.415 217.34 449.745
C 217.383 449.038 214.603 448.523 213.934 448.319
C 210.987 447.42 208.144 446.159 205.165 445.379
C 204.356 445.168 202.909 444.562 202.105 444.881
C 200.564 447.221 198.996 449.427 197.913 452.037
C 193.478 462.728 194.013 476.174 198.916 486.543
C 198.236 486.997 197.651 487.176 197.061 487.826
C 196.917 487.985 196.576 488.936 196.515 488.863
C 195.896 488.109 196.139 487.254 195.147 486.707
C 190.955 484.397 187.196 488.364 188.922 492.533
C 189.387 493.657 190.758 494.162 191.74 494.728
C 192.166 495.592 191.846 497.275 191.842 498.242
C 191.827 501.159 191.82 504.076 191.797 506.993
C 191.738 514.663 191.628 522.336 191.696 530.006
C 191.726 533.401 191.27 537.19 191.833 540.53
C 192.454 541.963 194.027 542.797 195.226 543.694
C 196.872 544.925 198.302 546.244 199.428 547.976
C 199.783 548.522 200.826 549.631 200.691 550.302
C 199.813 550.903 198.985 551.62 198.455 552.558
C 198.073 553.233 197.887 554.061 197.867 554.833
C 197.713 560.956 207.326 560.308 206.882 554.596
C 206.724 552.556 204.61 551.186 203.365 549.767
C 201.616 547.774 200.545 545.379 198.621 543.455
C 197.414 542.247 195.11 541.016 194.451 539.409
C 194.077 538.498 194.218 537.23 194.182 536.267
C 194.102 534.127 193.958 531.994 193.916 529.851
C 193.765 522.067 194.231 514.282 194.093 506.5
C 194.045 503.859 194.03 501.214 194.071 498.573
C 194.089 497.418 193.838 496.021 194.306 494.95
C 195.101 493.989 195.802 493.117 196.44 492.039
C 196.653 491.68 196.951 490.923 197.491 490.934
C 197.753 490.939 198.273 491.923 198.395 492.108
C 199.239 493.395 200.267 494.531 201.357 495.614
C 202.781 497.03 204.439 498.703 206.225 499.653
C 207.089 500.113 208.165 499.91 208.929 500.528
C 208.744 503.106 209.328 505.546 209.388 508.112
C 209.428 509.807 209.048 511.835 209.462 513.486
C 209.627 514.148 210.411 514.218 211.001 514.35
C 212.314 515.438 213.031 514.933 212.353 513.529
C 211.585 511.123 211.916 507.784 212.639 505.425
C 212.877 504.649 212.602 503.683 213.301 503.169
C 214.498 503.255 215.748 503.269 216.929 503.484
C 217.026 503.501 217.932 503.703 217.92 503.932
C 217.9 504.333 215.738 505.643 215.374 506.227
C 213.526 509.192 215.706 512.506 218.422 513.855
C 219.517 516.715 218.421 520.138 218.833 523.085
C 219.244 523.385 219.702 523.446 220.028 523.818
C 219.781 523.993 219.145 524.434 219.091 524.588
C 218.959 524.962 220.289 526.305 220.516 526.598
C 222.034 528.561 223.808 530.429 225.507 532.237
C 228.206 535.11 230.942 537.947 233.64 540.822
C 235.096 542.374 237.001 544.123 237.71 546.186
C 238.418 548.244 238.117 550.982 237.944 553.113
C 237.833 554.472 238.085 556.395 237.439 557.608
C 236.424 558.423 234.864 559.302 234.342 560.542
C 233.472 562.605 236.004 566.906 238.049 567.446
C 241.046 567.859 244.403 564.714 243.713 561.619
C 243.318 559.846 241.521 558.782 240.36 557.547
C 239.07 553.629 241.59 548.97 239.726 545.033
C 238.704 542.874 236.501 541.456 235 539.665
C 230.426 534.205 224.975 529.496 220.455 524.012
C 220.88 523.313 220.671 521.813 220.661 521
C 220.633 518.817 220.009 515.421 220.7 513.4
C 223.278 510.661 223.86 509.124 223.274 505.422
C 224.322 504.928 224.939 505.114 226.028 505.396
C 225.154 505.569 225.904 506.635 226.175 506.954
C 226.856 507.992 226.474 509.173 226.34 510.323
C 226.065 512.669 225.742 514.913 225.822 517.288
C 225.962 521.441 227.967 522.26 230.556 525.01
C 232.223 526.78 233.677 528.743 235.39 530.479
C 236.626 531.732 238.567 533.991 240.535 533.587
C 241.101 533.215 240.976 532.875 240.718 532.31
C 237.527 529.728 234.951 527.053 232.219 524
C 230.855 522.476 228.95 521.318 228.394 519.232
C 227.374 515.407 228.307 510.957 228.255 507.05
C 231.71 506.376 235.212 509.82 238.005 511.401
C 238.456 511.656 241.288 513.39 240.072 513.884
C 236.699 511.707 232.919 515.435 233.48 518.996
C 235.985 524.674 243.457 522.027 241.829 516.086
C 242.412 514.521 244.284 517.546 244.848 518.153
C 247.446 520.953 249.838 524.434 251.525 527.862
C 251.787 528.68 251.39 529.023 250.811 529.597
C 250.017 528.822 249.187 528.008 248.039 527.82
C 245.24 527.364 241.463 530.068 242.422 533.205
C 243.709 537.417 250.163 538.228 251.238 533.437
C 251.634 532.624 251.524 530.752 252.93 530.874
C 253.675 530.939 253.11 534.185 253.118 534.71
C 253.189 539.011 254.498 543.119 254.162 547.504
C 253.844 551.664 254.081 555.689 253.002 559.803
C 251.132 566.939 247.516 573.106 244.181 579.601
C 242.327 583.213 240.147 586.119 237.835 589.418
C 237.28 590.211 236.067 592.552 234.891 592.265
C 234.717 591.525 235.137 590.705 235.168 589.942
C 235.253 587.833 235.675 584.859 234.352 583.046
C 232.385 580.349 228.915 580.472 227.532 583.604
C 226.456 586.04 226.798 590.311 228.351 592.497
C 229.383 593.251 230.836 593.059 232.026 593.157
C 232.628 593.207 233.253 592.844 233.688 593.294
C 233.961 594.058 233.131 594.707 232.687 595.265
C 231.161 597.183 229.322 598.74 227.521 600.387
C 225.898 601.872 223.227 603.885 222.22 605.852
C 222.048 606.187 222.195 606.691 221.959 606.988
C 221.325 607.785 219.35 608.266 218.459 608.899
C 215.734 610.838 213.35 613.341 210.627 615.33
C 209.18 616.386 207.7 617.411 206.227 618.43
C 205.523 618.918 204.895 619.6 204.003 619.453
C 203.359 616.661 204.171 613.636 203.376 610.885
C 201.602 608.341 197.355 608.882 195.955 611.507
C 195.607 613.567 194.971 618.795 196.605 620.369
C 197.359 621.094 198.74 620.978 199.688 620.902
C 200.326 620.85 200.939 620.752 201.514 620.47
C 202.684 620.316 202.291 622.16 202.409 622.265
C 202.575 622.412 203.586 622.391 203.361 622.882
C 203.119 623.409 201.802 622.485 201.403 622.982
C 201.07 623.397 200.969 624.41 201.51 624.616
C 201.864 624.75 202.823 623.785 201.89 624.801
C 197.625 627.177 193.64 629.927 189.21 632.044
C 188.012 632.617 184.688 635.096 184.574 632.534
C 184.834 631.971 184.588 631.575 184.695 631.017
C 184.948 629.699 185.756 628.309 186.074 626.981
C 186.703 624.358 186.317 621.17 186.31 618.491
C 186.295 612.568 186.236 606.533 186.239 600.71
C 186.24 597.447 185.83 594.024 186.316 590.79
C 187.881 590.87 189.414 590.975 190.982 590.844
C 191.825 590.773 192.719 590.439 193.536 590.7
C 193.867 591.159 194.104 591.652 194.451 592.1
C 195.063 592.291 195.638 592.467 196.277 592.361
C 197.9 590.531 198.651 587.845 200.296 585.903
C 203.233 582.436 206.663 579.314 209.773 575.994
C 213.961 571.522 218.08 567.055 222.435 562.739
C 225.902 559.303 231.374 555.568 230.678 550.041
C 230.342 547.371 227.879 545.551 226.114 543.755
C 223.598 541.197 221.32 538.392 218.618 536.023
C 216.966 534.575 214.535 533.064 213.504 531.067
C 212.836 529.771 213.347 527.748 213.457 526.366
C 213.726 522.986 213.478 519.585 213.67 516.25
C 212.699 516.138 211.535 516.57 210.605 516.26
C 210.02 516.065 209.66 515.611 209.117 516.032
C 208.808 517.242 208.527 518.634 209.034 519.824
C 209.537 520.376 210.212 520.777 210.838 521.179
C 212.093 524.721 209.203 529.661 211.618 532.869
C 213.109 534.849 215.327 536.351 217.13 538.032
C 219.38 540.13 221.403 542.529 223.575 544.715
C 225.349 546.499 227.8 548.414 228.027 551.1
C 228.378 555.251 222.669 559.123 220.087 561.559
C 214.288 567.031 208.632 572.811 203.15 578.603
C 200.285 581.63 197.778 585.11 194.673 587.892
C 193.89 588.169 193.045 587.823 192.227 587.787
C 190.468 587.712 188.433 588.261 186.764 587.878
C 186.62 584.03 186.42 580.204 186.374 576.353
C 189.95 575.423 194.105 577.53 197.485 575.443
C 200.532 573.419 202.994 570.387 205.587 567.832
C 208.435 565.027 212.038 562.198 214.025 558.675
C 214.803 557.295 214.207 555.759 214.87 554.495
C 215.87 553.952 216.854 553.479 217.623 552.606
C 221.38 548.346 214.721 542.971 210.777 546.996
C 210.189 547.596 209.853 548.279 209.707 549.105
C 209.573 549.861 209.642 550.644 209.914 551.364
C 210.426 552.718 211.465 553.567 212.271 554.712
C 212.887 558.251 208.676 561.451 206.378 563.55
C 204.188 565.548 202.075 567.625 200.004 569.745
C 198.647 571.134 197.155 572.916 195.263 573.566
C 192.92 574.371 189.127 573.858 186.684 573.636
C 186.453 570.866 185.999 567.582 186.486 564.836
C 186.589 564.254 185.996 561.841 186.838 562.012
C 187.985 563.398 189.714 564.892 191.64 564.808
C 193.728 564.717 196.345 561.972 195.777 559.813
C 195.403 558.39 193.877 557.032 192.571 556.467
C 191.272 555.905 189.55 555.918 188.419 556.865
C 188.044 557.179 186.988 558.852 186.676 558.746
C 185.92 556.435 186.526 552.68 186.572 550.223
C 186.671 544.879 186.54 539.559 186.571 534.211
C 186.648 520.876 187.61 507.287 186.834 493.975
C 186.697 491.608 185.422 489.692 185.014 487.44
C 184.599 485.146 185.169 482.789 184.9 480.497
C 185.315 472.154 186.699 463.289 190.157 455.615
C 191.5 452.634 192.98 449.721 194.714 446.946
C 195.477 445.725 197.129 444.057 197.385 442.651
C 190.243 439.251 184.907 432.121 183.145 424.511
C 182.497 421.71 182.045 418.877 182.059 415.994
C 182.063 415.204 181.47 412.435 182.57 413.318
C 183.427 413.924 183.668 415.551 183.951 416.512
C 184.468 418.268 185.453 419.932 186.347 421.518
C 188.98 426.191 193.199 430.54 197.666 433.484
C 203.478 437.314 210.93 438.795 217.444 441.032
C 225.377 443.757 232.887 447.363 239.348 452.804
C 243.526 456.322 247.44 461.127 250.127 465.881
C 250.84 467.142 251.516 468.409 252.102 469.733
C 252.217 469.994 252.759 470.791 252.495 470.942
C 250.99 469.886 250.382 468.55 248.471 468.025 Z
M 187.899 601.541
C 186.776 605.127 189.969 608.669 193.65 607.663
C 195.524 607.151 196.498 605.56 197.988 604.482
C 201.3 603.688 205.42 604.186 208.799 604.389
C 210.176 604.472 211.761 604.289 213.101 604.635
C 214.603 605.023 215.53 606.686 217.035 607.215
C 218.902 607.61 220.71 606.587 221.881 605.163
C 223.556 602.416 221.631 597.895 218.067 598.154
C 215.287 598.357 214.814 600.406 212.868 601.751
C 209.564 602.11 206.019 601.699 202.689 601.71
C 200.974 601.716 198.798 602.077 197.152 601.633
C 194.339 598.745 190.593 597.54 187.899 601.541 Z
M 197.471 534.109
C 196.889 540.844 207.791 539.739 206.334 533.071
C 206.04 531.729 204.636 531.025 203.79 530.076
C 203.096 526.934 203.629 523.154 203.604 519.934
C 203.588 517.952 203.14 515.557 203.525 513.635
C 204.98 512.641 206.099 511.826 206.874 510.195
C 209.113 504.326 196.95 502.869 197.941 510.014
C 198.194 511.838 200.166 512.158 200.837 513.626
C 201.109 517.247 200.924 520.93 200.924 524.56
C 200.924 526.059 201.366 528.287 200.984 529.686
C 198.88 530.861 198.037 531.724 197.471 534.109 Z
M 206.909 588.535
C 205.324 593.753 212.412 596.23 214.74 591.501
C 215.583 589.094 214.56 586.601 212.585 585.049
C 213.736 582.298 216.165 579.503 218.187 577.344
C 218.842 576.645 219.588 575.679 220.512 575.33
C 221.517 574.95 222.937 575.259 223.998 575.252
C 226.852 575.232 230.217 574.783 233.01 575.254
C 233.875 576.27 234.568 577.504 235.714 578.247
C 238.221 579.874 242.219 577.881 242.637 574.95
C 242.928 572.912 241.882 571.506 240.271 570.404
C 239.396 569.805 238.483 569.434 237.406 569.692
C 235.38 570.176 234.562 571.929 232.948 572.912
C 230.137 572.787 227.317 572.859 224.504 572.808
C 223.052 572.781 221.368 572.437 219.946 572.775
C 218.308 573.164 216.757 575.064 215.678 576.255
C 212.329 579.95 209.137 584.057 206.909 588.535 Z
M 244.343 547.538
C 243.124 553.268 251.15 554.322 253.061 549.387
C 253.754 544.466 246.32 543.426 244.343 547.538 Z"
opacity="1" fill="rgb(15,51,114)" fill-rule="evenodd" />
<path d="
M 184.9 480.497
C 185.169 482.789 184.599 485.146 185.014 487.44
C 185.422 489.692 186.697 491.608 186.834 493.975
C 187.61 507.287 186.648 520.876 186.571 534.211
C 186.54 539.559 186.671 544.879 186.572 550.223
C 186.526 552.68 185.92 556.435 186.676 558.746
C 186.988 558.852 188.044 557.179 188.419 556.865
C 189.55 555.918 191.272 555.905 192.571 556.467
C 193.877 557.032 195.403 558.39 195.777 559.813
C 196.345 561.972 193.728 564.717 191.64 564.808
C 189.714 564.892 187.985 563.398 186.838 562.012
C 185.996 561.841 186.589 564.254 186.486 564.836
C 185.999 567.582 186.453 570.866 186.684 573.636
C 189.127 573.858 192.92 574.371 195.263 573.566
C 197.155 572.916 198.647 571.134 200.004 569.745
C 202.075 567.625 204.188 565.548 206.378 563.55
C 208.676 561.451 212.887 558.251 212.271 554.712
C 211.465 553.567 210.426 552.718 209.914 551.364
C 209.642 550.644 209.573 549.861 209.707 549.105
C 209.853 548.279 210.189 547.596 210.777 546.996
C 214.721 542.971 221.38 548.346 217.623 552.606
C 216.854 553.479 215.87 553.952 214.87 554.495
C 214.207 555.759 214.803 557.295 214.025 558.675
C 212.038 562.198 208.435 565.027 205.587 567.832
C 202.994 570.387 200.532 573.419 197.485 575.443
C 194.105 577.53 189.95 575.423 186.374 576.353
C 186.42 580.204 186.62 584.03 186.764 587.878
C 188.433 588.261 190.468 587.712 192.227 587.787
C 193.045 587.823 193.89 588.169 194.673 587.892
C 197.778 585.11 200.285 581.63 203.15 578.603
C 208.632 572.811 214.288 567.031 220.087 561.559
C 222.669 559.123 228.378 555.251 228.027 551.1
C 227.8 548.414 225.349 546.499 223.575 544.715
C 221.403 542.529 219.38 540.13 217.13 538.032
C 215.327 536.351 213.109 534.849 211.618 532.869
C 209.203 529.661 212.093 524.721 210.838 521.179
C 210.212 520.777 209.537 520.376 209.034 519.824
C 208.527 518.634 208.808 517.242 209.117 516.032
C 209.66 515.611 210.02 516.065 210.605 516.26
C 211.535 516.57 212.699 516.138 213.67 516.25
C 213.478 519.585 213.726 522.986 213.457 526.366
C 213.347 527.748 212.836 529.771 213.504 531.067
C 214.535 533.064 216.966 534.575 218.618 536.023
C 221.32 538.392 223.598 541.197 226.114 543.755
C 227.879 545.551 230.342 547.371 230.678 550.041
C 231.374 555.568 225.902 559.303 222.435 562.739
C 218.08 567.055 213.961 571.522 209.773 575.994
C 206.663 579.314 203.233 582.436 200.296 585.903
C 198.651 587.845 197.9 590.531 196.277 592.361
C 195.638 592.467 195.063 592.291 194.451 592.1
C 194.104 591.652 193.867 591.159 193.536 590.7
C 192.719 590.439 191.825 590.773 190.982 590.844
C 189.414 590.975 187.881 590.87 186.316 590.79
C 185.83 594.024 186.24 597.447 186.239 600.71
C 186.236 606.533 186.295 612.568 186.31 618.491
C 186.317 621.17 186.703 624.358 186.074 626.981
C 185.756 628.309 184.948 629.699 184.695 631.017
C 184.588 631.575 184.834 631.971 184.574 632.534
C 183.769 626.661 184.336 620.427 184.339 614.508
C 184.345 602.679 184.462 590.845 184.427 579.016
C 184.362 557.015 184.278 534.99 184.537 512.995
C 184.665 502.16 184.441 491.324 184.9 480.497 Z
M 189.383 558.966
C 188.757 560.356 189.278 562.218 190.927 562.517
C 195.533 562.151 192.361 556.058 189.383 558.966 Z
M 212.398 548.99
C 212.329 550.086 212.663 550.8 213.317 551.655
C 214.399 551.978 215.551 551.417 216.099 550.44
C 216.473 548.305 213.666 547.455 212.398 548.99 Z"
opacity="1" fill="rgb(5,22,60)" fill-rule="evenodd" />
<path d="
M 185.908 395.58
C 186.454 394.604 186.075 394.683 186.982 395.137
C 189.402 398.556 191.298 402.278 194.361 405.228
C 201.225 411.838 210.668 415.406 219.975 416.469
C 222.435 416.75 225.001 417.365 227.488 417.125
C 229.115 416.967 230.7 415.697 232.213 415.102
C 234.918 414.04 237.794 413.234 240.598 412.474
C 247.888 410.497 255.582 410.228 263.087 410.414
C 269.896 410.582 276.936 412.11 283.458 413.994
C 286.212 414.789 289.21 416.903 292.039 417.121
C 294.843 417.337 298.231 416.265 300.979 415.723
C 313.727 413.209 324.828 406.151 330.366 394.184
C 332.987 394.259 331.805 400.422 331.514 402.305
C 330.238 410.539 326.732 417.322 320.878 423.263
C 313.765 430.48 303.862 432.097 294.678 435.284
C 287.447 437.793 280.607 441.651 275.148 447.06
C 270.519 452.117 266.299 457.245 263.465 463.551
C 262.303 466.138 261.554 468.931 260.432 471.534
C 260.289 471.866 259.641 474.059 259.259 473.683
C 258.765 470.095 256.844 466.68 255.311 463.438
C 250.613 453.505 243.449 444.512 233.443 439.463
C 226.473 435.946 218.889 434.456 211.611 431.816
C 200.019 427.611 189.666 418.611 186.97 406.212
C 186.224 402.78 185.689 399.096 185.908 395.58 Z"
opacity="1" fill="rgb(0,0,0)" fill-rule="evenodd" />
<path d="
M 187.899 601.541
C 190.593 597.54 194.339 598.745 197.152 601.633
C 198.798 602.077 200.974 601.716 202.689 601.71
C 206.019 601.699 209.564 602.11 212.868 601.751
C 214.814 600.406 215.287 598.357 218.067 598.154
C 221.631 597.895 223.556 602.416 221.881 605.163
C 220.71 606.587 218.902 607.61 217.035 607.215
C 215.53 606.686 214.603 605.023 213.101 604.635
C 211.761 604.289 210.176 604.472 208.799 604.389
C 205.42 604.186 201.3 603.688 197.988 604.482
C 196.498 605.56 195.524 607.151 193.65 607.663
C 189.969 608.669 186.776 605.127 187.899 601.541 Z
M 190.437 603.085
C 190.495 603.983 190.77 604.696 191.564 605.162
C 193.374 605.341 195.14 604.19 194.316 602.304
C 193.195 601.233 191.595 601.58 190.592 602.595
C 190.54 602.758 190.489 602.921 190.437 603.085 Z
M 215.974 602.611
C 216.114 603.509 216.534 604.058 217.359 604.439
C 218.327 604.502 219.264 604.289 219.766 603.373
C 219.97 602.063 219.235 601.058 217.98 600.731
C 216.888 600.88 216.205 601.528 215.974 602.611 Z"
opacity="1" fill="rgb(7,19,37)" fill-rule="evenodd" />
<path d="
M 198.916 486.543
C 202.091 492.827 207.78 497.811 214.502 499.888
C 218.219 501.036 222.169 501.171 225.873 502.306
C 229.985 503.566 233.845 505.498 237.582 507.611
C 242.268 510.261 245.684 514.077 248.649 518.497
C 258.89 533.764 258.73 553.256 252.329 569.994
C 248.834 579.181 243.568 587.314 236.949 594.53
C 233.594 598.039 230.278 601.469 226.652 604.71
C 225.532 605.785 224.329 606.745 223.174 607.778
C 223.061 607.879 222.948 607.981 222.835 608.083
C 217.914 612.641 212.802 617.162 207.338 621.066
C 205.583 622.368 203.799 623.727 201.89 624.801
C 202.823 623.785 201.864 624.75 201.51 624.616
C 200.969 624.41 201.07 623.397 201.403 622.982
C 201.802 622.485 203.119 623.409 203.361 622.882
C 203.586 622.391 202.575 622.412 202.409 622.265
C 202.291 622.16 202.684 620.316 201.514 620.47
C 200.939 620.752 200.326 620.85 199.688 620.902
C 198.74 620.978 197.359 621.094 196.605 620.369
C 194.971 618.795 195.607 613.567 195.955 611.507
C 197.355 608.882 201.602 608.341 203.376 610.885
C 204.171 613.636 203.359 616.661 204.003 619.453
C 204.895 619.6 205.523 618.918 206.227 618.43
C 207.7 617.411 209.18 616.386 210.627 615.33
C 213.35 613.341 215.734 610.838 218.459 608.899
C 219.35 608.266 221.325 607.785 221.959 606.988
C 222.195 606.691 222.048 606.187 222.22 605.852
C 223.227 603.885 225.898 601.872 227.521 600.387
C 229.322 598.74 231.161 597.183 232.687 595.265
C 233.131 594.707 233.961 594.058 233.688 593.294
C 233.253 592.844 232.628 593.207 232.026 593.157
C 230.836 593.059 229.383 593.251 228.351 592.497
C 226.798 590.311 226.456 586.04 227.532 583.604
C 228.915 580.472 232.385 580.349 234.352 583.046
C 235.675 584.859 235.253 587.833 235.168 589.942
C 235.137 590.705 234.717 591.525 234.891 592.265
C 236.067 592.552 237.28 590.211 237.835 589.418
C 240.147 586.119 242.327 583.213 244.181 579.601
C 247.516 573.106 251.132 566.939 253.002 559.803
C 254.081 555.689 253.844 551.664 254.162 547.504
C 254.498 543.119 253.189 539.011 253.118 534.71
C 253.11 534.185 253.675 530.939 252.93 530.874
C 251.524 530.752 251.634 532.624 251.238 533.437
C 251.406 532.14 251.2 530.838 250.811 529.597
C 251.39 529.023 251.787 528.68 251.525 527.862
C 249.838 524.434 247.446 520.953 244.848 518.153
C 244.284 517.546 242.412 514.521 241.829 516.086
C 241.097 515.448 240.517 514.748 240.072 513.884
C 241.288 513.39 238.456 511.656 238.005 511.401
C 235.212 509.82 231.71 506.376 228.255 507.05
C 227.525 506.371 226.97 505.794 226.028 505.396
C 224.939 505.114 224.322 504.928 223.274 505.422
C 223.86 509.124 223.278 510.661 220.7 513.4
C 220.009 515.421 220.633 518.817 220.661 521
C 220.671 521.813 220.88 523.313 220.455 524.012
C 220.313 523.947 220.17 523.882 220.028 523.818
C 219.702 523.446 219.244 523.385 218.833 523.085
C 218.421 520.138 219.517 516.715 218.422 513.855
C 215.706 512.506 213.526 509.192 215.374 506.227
C 215.738 505.643 217.9 504.333 217.92 503.932
C 217.932 503.703 217.026 503.501 216.929 503.484
C 215.748 503.269 214.498 503.255 213.301 503.169
C 212.602 503.683 212.877 504.649 212.639 505.425
C 211.916 507.784 211.585 511.123 212.353 513.529
C 211.687 513.943 211.876 514.355 211.001 514.35
C 210.411 514.218 209.627 514.148 209.462 513.486
C 209.048 511.835 209.428 509.807 209.388 508.112
C 209.328 505.546 208.744 503.106 208.929 500.528
C 208.165 499.91 207.089 500.113 206.225 499.653
C 204.439 498.703 202.781 497.03 201.357 495.614
C 200.267 494.531 199.239 493.395 198.395 492.108
C 198.273 491.923 197.753 490.939 197.491 490.934
C 196.951 490.923 196.653 491.68 196.44 492.039
C 195.802 493.117 195.101 493.989 194.306 494.95
C 193.838 496.021 194.089 497.418 194.071 498.573
C 194.03 501.214 194.045 503.859 194.093 506.5
C 194.231 514.282 193.765 522.067 193.916 529.851
C 193.958 531.994 194.102 534.127 194.182 536.267
C 194.218 537.23 194.077 538.498 194.451 539.409
C 195.11 541.016 197.414 542.247 198.621 543.455
C 200.545 545.379 201.616 547.774 203.365 549.767
C 204.61 551.186 206.724 552.556 206.882 554.596
C 207.326 560.308 197.713 560.956 197.867 554.833
C 197.887 554.061 198.073 553.233 198.455 552.558
C 198.985 551.62 199.813 550.903 200.691 550.302
C 200.826 549.631 199.783 548.522 199.428 547.976
C 198.302 546.244 196.872 544.925 195.226 543.694
C 194.027 542.797 192.454 541.963 191.833 540.53
C 191.27 537.19 191.726 533.401 191.696 530.006
C 191.628 522.336 191.738 514.663 191.797 506.993
C 191.82 504.076 191.827 501.159 191.842 498.242
C 191.846 497.275 192.166 495.592 191.74 494.728
C 190.758 494.162 189.387 493.657 188.922 492.533
C 187.196 488.364 190.955 484.397 195.147 486.707
C 196.139 487.254 195.896 488.109 196.515 488.863
C 196.576 488.936 196.917 487.985 197.061 487.826
C 197.651 487.176 198.236 486.997 198.916 486.543 Z
M 190.905 490.051
C 190.791 491.3 190.982 492.453 192.385 492.717
C 195.485 492.634 195.579 489.298 192.966 488.229
C 191.885 488.304 191.239 489.052 190.905 490.051 Z
M 198.407 612.415
C 197.787 614.116 197.842 617.414 198.948 618.901
C 202.179 620.132 201.95 612.931 199.993 611.771
C 199.36 611.781 198.921 612.065 198.407 612.415 Z
M 200.42 554.585
C 200.391 555.499 200.423 556.08 201.107 556.732
C 202.382 557.238 203.776 556.828 204.287 555.512
C 204.769 552.682 201.26 551.507 200.42 554.585 Z
M 217.386 507.369
C 216.849 508.699 217.343 509.817 218.387 510.721
C 219.433 511.06 221.067 510.524 221.56 509.48
C 221.371 507.129 219.292 506.313 217.386 507.369 Z
M 229.44 586.607
C 229.417 587.932 229.671 589.479 230.221 590.68
C 230.936 591.185 231.436 591.222 232.156 590.693
C 233.074 589.07 233.72 586.791 232.965 584.979
C 232.539 583.955 231.493 582.842 230.365 583.306
C 229.809 584.38 229.647 585.43 229.44 586.607 Z"
opacity="1" fill="rgb(7,28,69)" fill-rule="evenodd" />
<path d="
M 189.383 558.966
C 192.361 556.058 195.533 562.151 190.927 562.517
C 189.278 562.218 188.757 560.356 189.383 558.966 Z"
opacity="0.996" fill="rgb(11,59,142)" fill-rule="evenodd" />
<path d="
M 190.437 603.085
C 190.489 602.921 190.54 602.758 190.592 602.595
C 191.595 601.58 193.195 601.233 194.316 602.304
C 195.14 604.19 193.374 605.341 191.564 605.162
C 190.77 604.696 190.495 603.983 190.437 603.085 Z"
opacity="1" fill="rgb(2,51,131)" fill-rule="evenodd" />
<path d="
M 190.905 490.051
C 191.239 489.052 191.885 488.304 192.966 488.229
C 195.579 489.298 195.485 492.634 192.385 492.717
C 190.982 492.453 190.791 491.3 190.905 490.051 Z"
opacity="0.996" fill="rgb(9,62,136)" fill-rule="evenodd" />
<path d="
M 197.471 534.109
C 198.037 531.724 198.88 530.861 200.984 529.686
C 201.366 528.287 200.924 526.059 200.924 524.56
C 200.924 520.93 201.109 517.247 200.837 513.626
C 200.166 512.158 198.194 511.838 197.941 510.014
C 196.95 502.869 209.113 504.326 206.874 510.195
C 206.099 511.826 204.98 512.641 203.525 513.635
C 203.14 515.557 203.588 517.952 203.604 519.934
C 203.629 523.154 203.096 526.934 203.79 530.076
C 204.636 531.025 206.04 531.729 206.334 533.071
C 207.791 539.739 196.889 540.844 197.471 534.109 Z
M 199.951 534.09
C 199.755 536.453 202.307 537.022 203.87 535.592
C 205.517 532.927 200.924 530.528 199.951 534.09 Z
M 200.829 508.471
C 200.545 509.343 200.536 509.96 200.985 510.768
C 202.776 512.359 205.335 510.359 204.254 508.252
C 203.293 507.554 202.342 507.544 201.265 507.98
C 201.119 508.143 200.974 508.307 200.829 508.471 Z"
opacity="1" fill="rgb(8,23,50)" fill-rule="evenodd" />
<path d="
M 198.407 612.415
C 198.921 612.065 199.36 611.781 199.993 611.771
C 201.95 612.931 202.179 620.132 198.948 618.901
C 197.842 617.414 197.787 614.116 198.407 612.415 Z"
opacity="1" fill="rgb(9,45,110)" fill-rule="evenodd" />
<path d="
M 199.951 534.09
C 200.924 530.528 205.517 532.927 203.87 535.592
C 202.307 537.022 199.755 536.453 199.951 534.09 Z"
opacity="0.996" fill="rgb(9,62,145)" fill-rule="evenodd" />
<path d="
M 200.42 554.585
C 201.26 551.507 204.769 552.682 204.287 555.512
C 203.776 556.828 202.382 557.238 201.107 556.732
C 200.423 556.08 200.391 555.499 200.42 554.585 Z"
opacity="1" fill="rgb(11,60,144)" fill-rule="evenodd" />
<path d="
M 200.829 508.471
C 200.974 508.307 201.119 508.143 201.265 507.98
C 202.342 507.544 203.293 507.554 204.254 508.252
C 205.335 510.359 202.776 512.359 200.985 510.768
C 200.536 509.96 200.545 509.343 200.829 508.471 Z"
opacity="1" fill="rgb(5,66,155)" fill-rule="evenodd" />
<path d="
M 206.909 588.535
C 209.137 584.057 212.329 579.95 215.678 576.255
C 216.757 575.064 218.308 573.164 219.946 572.775
C 221.368 572.437 223.052 572.781 224.504 572.808
C 227.317 572.859 230.137 572.787 232.948 572.912
C 234.562 571.929 235.38 570.176 237.406 569.692
C 238.483 569.434 239.396 569.805 240.271 570.404
C 241.882 571.506 242.928 572.912 242.637 574.95
C 242.219 577.881 238.221 579.874 235.714 578.247
C 234.568 577.504 233.875 576.27 233.01 575.254
C 230.217 574.783 226.852 575.232 223.998 575.252
C 222.937 575.259 221.517 574.95 220.512 575.33
C 219.588 575.679 218.842 576.645 218.187 577.344
C 216.165 579.503 213.736 582.298 212.585 585.049
C 214.56 586.601 215.583 589.094 214.74 591.501
C 212.412 596.23 205.324 593.753 206.909 588.535 Z
M 209.32 588.98
C 208.874 590.107 209.061 591.311 210.18 591.93
C 211.298 592.083 212.201 591.946 212.83 590.888
C 213.328 589.363 212.331 588.163 210.962 587.641
C 210.19 587.858 209.796 588.353 209.32 588.98 Z
M 235.825 574.046
C 235.975 575.001 236.46 575.643 237.328 576.074
C 238.392 576.155 239.679 575.99 240.196 574.904
C 240.324 572.239 236.971 572.014 235.825 574.046 Z"
opacity="1" fill="rgb(5,21,48)" fill-rule="evenodd" />
<path d="
M 209.32 588.98
C 209.796 588.353 210.19 587.858 210.962 587.641
C 212.331 588.163 213.328 589.363 212.83 590.888
C 212.201 591.946 211.298 592.083 210.18 591.93
C 209.061 591.311 208.874 590.107 209.32 588.98 Z"
opacity="0.996" fill="rgb(4,54,130)" fill-rule="evenodd" />
<path d="
M 316.864 445.58
C 316.3 444.046 320.682 442.148 321.967 442.362
C 323.062 444.799 324.796 447.015 325.979 449.441
C 328.98 455.596 331.348 462.012 333.02 468.654
C 336.156 481.111 336.942 494.711 335.956 507.492
C 335.271 516.376 334.524 525.13 332.515 533.856
C 328.309 552.122 320.377 569.55 308.71 584.283
C 301.073 593.928 291.63 601.69 281.646 608.746
C 276.457 612.414 271.036 615.877 265.226 618.491
C 253.883 623.595 241.555 625.915 229.288 627.366
C 224.929 627.882 220.535 627.835 216.151 627.828
C 214.222 627.825 211.743 628.143 210.048 627.087
C 210.61 625.574 212.988 624.522 214.237 623.497
C 217.604 620.732 220.754 617.7 223.851 614.639
C 235.297 603.326 248.386 592.094 255.291 577.237
C 259.632 567.895 261.697 557.535 261.332 547.241
C 261.039 538.939 258.188 530.262 260.983 522.105
C 262.003 519.127 263.917 516.444 265.881 514.02
C 270.959 507.756 278.147 503.555 286.079 502.138
C 292.154 501.053 298.417 501.708 304.345 499.615
C 311.25 497.177 316.939 492.02 320.441 485.632
C 322.344 482.16 323.208 478.348 323.897 474.489
C 324.695 470.016 324.815 465.181 323.774 460.734
C 322.491 455.252 320.188 450.109 316.864 445.58 Z
M 220.87 624.751
C 221.3 625.398 224.545 624.907 225.36 624.927
C 226.788 624.96 228.509 624.915 229.831 624.308
C 230.776 623.873 231.475 622.85 232.139 622.089
C 233.8 620.183 235.334 618.118 236.786 616.051
C 237.77 614.651 239.134 611.683 240.926 611.292
C 243.587 610.712 246.782 611.119 249.501 611.137
C 254.643 611.171 259.786 611.154 264.928 611.193
C 266.905 611.208 269.088 611.672 271.041 611.351
C 274.68 610.755 278.396 607.537 281.277 605.407
C 287.213 601.017 292.598 596.123 298.02 591.131
C 300.578 588.775 304.006 585.932 305.552 582.749
C 306.462 580.876 305.427 577.218 305.408 575.145
C 305.363 570.343 305.266 565.525 305.36 560.723
C 305.399 558.744 305.117 556.491 305.497 554.548
C 305.768 553.159 307.238 552.14 308.175 551.18
C 310.68 548.61 312.844 545.504 315.683 543.293
C 316.264 541.203 315.806 538.19 315.82 535.996
C 315.854 530.664 315.885 525.328 315.806 519.995
C 315.768 517.402 315.079 513.764 316.067 511.304
C 317.139 508.637 321.008 506.328 323.611 505.558
C 324.206 507.332 323.264 507.422 321.966 508.432
C 320.39 509.658 317.929 511.288 317.715 513.441
C 316.774 522.909 318.355 532.654 317.783 542.176
C 320.842 542.27 324.279 542.559 327.314 542.27
C 331.522 529.238 333.046 515.061 333.431 501.435
C 333.667 493.097 333.626 484.622 332.357 476.346
C 331.491 470.692 330.095 464.768 328.065 459.438
C 327.688 458.448 327.294 453.687 325.318 454.823
C 324.683 455.188 324.659 455.936 324.893 456.534
C 325.609 458.362 326.402 459.793 326.623 461.818
C 327.132 466.483 327.109 471.227 326.276 475.851
C 324.045 488.245 316.619 498.202 304.564 502.607
C 300.592 504.059 296.008 504.163 291.835 504.394
C 291.613 505.596 293.837 506.425 294.556 507.346
C 296.495 509.831 294.164 512.904 291.623 513.627
C 291.252 514.387 291.751 515.567 291.808 516.41
C 291.984 518.991 292.941 522.773 291.592 525.114
C 288.932 529.73 284.383 533.356 280.489 536.883
C 278.821 538.394 276.511 540.03 275.356 541.986
C 274.731 543.044 275.097 544.899 275.078 546.09
C 275.023 549.438 274.905 552.798 274.894 556.161
C 274.887 558.512 274.892 560.864 274.879 563.215
C 274.874 564.018 274.54 565.248 275.042 565.885
C 275.521 566.216 275.912 566.597 276.325 567.004
C 276.679 567.614 276.725 568.24 276.709 568.941
C 276.572 575.312 266.393 573.401 268.493 568.05
C 268.799 567.269 269.291 566.556 269.887 565.969
C 270.807 565.063 271.554 564.897 272.787 564.77
C 273.355 564.41 272.981 563.564 272.96 563.013
C 272.906 561.596 272.907 560.172 272.867 558.753
C 272.756 554.747 273.109 550.737 273.139 546.731
C 273.152 545.004 272.706 542.561 273.302 540.926
C 274.111 538.706 277.44 536.631 279.156 535.107
C 281.902 532.67 284.709 530.229 287.126 527.461
C 288.153 526.285 289.655 524.86 290.056 523.306
C 290.547 521.401 290.045 518.921 289.89 516.981
C 289.797 515.823 289.999 514.496 289.599 513.392
C 287.21 511.791 286.037 509.851 287.342 507.004
C 287.621 506.394 289.436 505.461 289.384 504.945
C 289.297 504.105 287.921 504.7 287.45 504.77
C 285.614 505.042 283.991 505.269 282.318 506.142
C 281.581 507.471 282.359 509.556 282.285 511.055
C 282.23 512.161 281.584 513.021 281.471 514.078
C 281.188 516.702 281.099 519.599 280.988 522.267
C 280.458 522.702 279.054 522.047 278.599 521.73
C 278.343 520.1 278.56 518.118 278.753 516.475
C 278.838 515.755 279.229 515.052 279.078 514.313
C 278.306 514.215 277.556 514.328 276.81 514.073
C 276.706 513.14 276.587 512.268 276.667 511.329
C 277.825 511.236 278.791 511.957 279.936 511.89
C 280.779 511.066 279.299 508.023 278.989 507.12
C 276.938 507.688 274.807 509.567 273.201 510.919
C 268.316 515.031 263.964 520.503 262.975 527.009
C 262.187 532.201 263.402 537.584 263.865 542.75
C 264.656 551.59 264.743 562.247 261.387 570.608
C 258.551 577.629 255.076 584.419 250.622 590.587
C 245.891 597.138 240.126 602.856 234.81 608.921
C 230.296 614.072 226.203 620.425 220.87 624.751 Z
M 234.048 622.634
C 233.987 622.774 233.926 622.913 233.865 623.052
C 233.795 623.791 235.094 622.703 235.324 622.508
C 236.572 621.447 237.499 620.044 238.795 619.011
C 240.964 617.283 247.07 616.912 249.341 618.658
C 249.57 619.084 249.69 619.876 249.018 619.984
C 245.376 620.567 241.271 619.585 238.298 622.303
C 238.049 623.098 239.353 622.639 239.797 622.541
C 241.822 622.098 243.833 621.578 245.88 621.178
C 250.849 620.207 256.6 619.085 261.186 616.832
C 262.737 616.07 264.134 615.115 265.852 614.774
C 266.007 614.743 267.184 614.449 267.003 614.067
C 266.723 613.479 265.239 613.672 264.729 613.688
C 262.319 613.765 259.918 613.721 257.507 613.7
C 253.672 613.667 249.837 613.62 246.002 613.626
C 244.495 613.629 242.44 613.268 241.021 613.854
C 239.835 614.344 238.991 615.761 238.275 616.759
C 236.868 618.723 235.249 620.518 234.048 622.634 Z
M 270.393 568.053
C 270.126 568.955 270.195 569.764 270.638 570.596
C 271.527 571.368 273.026 571.628 274.072 570.969
C 275.579 569.439 274.252 567.485 272.869 566.436
C 271.693 566.243 270.914 567.069 270.393 568.053 Z
M 288.451 508.568
C 288.37 509.117 288.373 509.502 288.51 510.039
C 289.619 512.013 293.048 511.943 293.381 509.386
C 293.576 507.89 291.853 506.397 290.426 506.652
C 289.456 506.825 288.893 507.787 288.451 508.568 Z
M 307.985 555.062
C 307.197 556.94 307.728 559.95 307.708 561.982
C 307.669 565.985 307.635 569.994 307.693 573.998
C 307.723 576.059 308.1 578.21 307.934 580.26
C 307.833 580.569 308.716 579.433 308.799 579.289
C 309.269 578.483 309.741 577.665 310.244 576.879
C 311.883 574.316 313.524 571.715 315.227 569.196
C 316.432 567.412 317.153 565.374 318.186 563.477
C 321.425 557.528 324.817 551.048 326.443 544.418
C 325.704 543.811 322.978 544.333 321.997 544.337
C 320.823 544.343 319.184 544.011 318.074 544.393
C 316.835 544.819 315.988 546.229 315.118 547.146
C 312.679 549.715 310.156 552.26 307.985 555.062 Z"
opacity="1" fill="rgb(9,33,85)" fill-rule="evenodd" />
<path d="
M 217.34 449.745
C 218.423 449.415 219.761 449.959 220.825 450.322
C 223.48 451.228 226.839 452.127 229.147 453.743
C 224.543 452.304 221.256 457.434 220.385 461.1
C 218.512 468.985 226.672 475.397 234.015 472.819
C 236.07 472.098 237.496 470.687 238.572 468.829
C 239.741 466.809 240.254 464.405 240.247 462.082
C 243.196 463.51 245.025 467.391 248.471 468.025
C 247.951 467.968 247.498 469.674 247.319 470.186
C 246.45 472.669 245.594 474.969 244.031 477.13
C 239.994 482.713 232.271 485.215 225.752 483.144
C 222.23 482.026 218.362 480.641 215.799 477.858
C 208.498 469.927 209.242 456.64 217.34 449.745 Z"
opacity="1" fill="rgb(24,138,190)" fill-rule="evenodd" />
<path d="
M 211.001 514.35
C 211.876 514.355 211.687 513.943 212.353 513.529
C 213.031 514.933 212.314 515.438 211.001 514.35 Z"
opacity="1" fill="rgb(12,41,105)" fill-rule="evenodd" />
<path d="
M 212.398 548.99
C 213.666 547.455 216.473 548.305 216.099 550.44
C 215.551 551.417 214.399 551.978 213.317 551.655
C 212.663 550.8 212.329 550.086 212.398 548.99 Z"
opacity="1" fill="rgb(10,67,146)" fill-rule="evenodd" />
<path d="
M 215.974 602.611
C 216.205 601.528 216.888 600.88 217.98 600.731
C 219.235 601.058 219.97 602.063 219.766 603.373
C 219.264 604.289 218.327 604.502 217.359 604.439
C 216.534 604.058 216.114 603.509 215.974 602.611 Z"
opacity="1" fill="rgb(3,59,130)" fill-rule="evenodd" />
<path d="
M 217.386 507.369
C 219.292 506.313 221.371 507.129 221.56 509.48
C 221.067 510.524 219.433 511.06 218.387 510.721
C 217.343 509.817 216.849 508.699 217.386 507.369 Z"
opacity="0.996" fill="rgb(15,76,157)" fill-rule="evenodd" />
<path d="
M 220.028 523.818
C 220.17 523.882 220.313 523.947 220.455 524.012
C 224.975 529.496 230.426 534.205 235 539.665
C 236.501 541.456 238.704 542.874 239.726 545.033
C 241.59 548.97 239.07 553.629 240.36 557.547
C 241.521 558.782 243.318 559.846 243.713 561.619
C 244.403 564.714 241.046 567.859 238.049 567.446
C 236.004 566.906 233.472 562.605 234.342 560.542
C 234.864 559.302 236.424 558.423 237.439 557.608
C 238.085 556.395 237.833 554.472 237.944 553.113
C 238.117 550.982 238.418 548.244 237.71 546.186
C 237.001 544.123 235.096 542.374 233.64 540.822
C 230.942 537.947 228.206 535.11 225.507 532.237
C 223.808 530.429 222.034 528.561 220.516 526.598
C 220.289 526.305 218.959 524.962 219.091 524.588
C 219.145 524.434 219.781 523.993 220.028 523.818 Z
M 236.868 560.957
C 236.262 562.28 236.744 564.042 238.116 564.662
C 238.694 564.718 239.248 564.777 239.805 564.562
C 242.623 563.472 241.228 559.011 238.38 559.7
C 237.757 559.851 237.264 560.502 236.868 560.957 Z"
opacity="0.996" fill="rgb(41,174,235)" fill-rule="evenodd" />
<path d="
M 220.87 624.751
C 226.203 620.425 230.296 614.072 234.81 608.921
C 240.126 602.856 245.891 597.138 250.622 590.587
C 255.076 584.419 258.551 577.629 261.387 570.608
C 264.743 562.247 264.656 551.59 263.865 542.75
C 263.402 537.584 262.187 532.201 262.975 527.009
C 263.964 520.503 268.316 515.031 273.201 510.919
C 274.807 509.567 276.938 507.688 278.989 507.12
C 279.299 508.023 280.779 511.066 279.936 511.89
C 278.791 511.957 277.825 511.236 276.667 511.329
C 276.587 512.268 276.706 513.14 276.81 514.073
C 277.556 514.328 278.306 514.215 279.078 514.313
C 279.229 515.052 278.838 515.755 278.753 516.475
C 278.56 518.118 278.343 520.1 278.599 521.73
C 279.054 522.047 280.458 522.702 280.988 522.267
C 281.099 519.599 281.188 516.702 281.471 514.078
C 281.584 513.021 282.23 512.161 282.285 511.055
C 282.359 509.556 281.581 507.471 282.318 506.142
C 283.991 505.269 285.614 505.042 287.45 504.77
C 287.921 504.7 289.297 504.105 289.384 504.945
C 289.436 505.461 287.621 506.394 287.342 507.004
C 286.037 509.851 287.21 511.791 289.599 513.392
C 289.999 514.496 289.797 515.823 289.89 516.981
C 290.045 518.921 290.547 521.401 290.056 523.306
C 289.655 524.86 288.153 526.285 287.126 527.461
C 284.709 530.229 281.902 532.67 279.156 535.107
C 277.44 536.631 274.111 538.706 273.302 540.926
C 272.706 542.561 273.152 545.004 273.139 546.731
C 273.109 550.737 272.756 554.747 272.867 558.753
C 272.907 560.172 272.906 561.596 272.96 563.013
C 272.981 563.564 273.355 564.41 272.787 564.77
C 271.554 564.897 270.807 565.063 269.887 565.969
C 269.291 566.556 268.799 567.269 268.493 568.05
C 266.393 573.401 276.572 575.312 276.709 568.941
C 276.725 568.24 276.679 567.614 276.325 567.004
C 275.912 566.597 275.521 566.216 275.042 565.885
C 274.54 565.248 274.874 564.018 274.879 563.215
C 274.892 560.864 274.887 558.512 274.894 556.161
C 274.905 552.798 275.023 549.438 275.078 546.09
C 275.097 544.899 274.731 543.044 275.356 541.986
C 276.511 540.03 278.821 538.394 280.489 536.883
C 284.383 533.356 288.932 529.73 291.592 525.114
C 292.941 522.773 291.984 518.991 291.808 516.41
C 291.751 515.567 291.252 514.387 291.623 513.627
C 294.164 512.904 296.495 509.831 294.556 507.346
C 293.837 506.425 291.613 505.596 291.835 504.394
C 296.008 504.163 300.592 504.059 304.564 502.607
C 316.619 498.202 324.045 488.245 326.276 475.851
C 327.109 471.227 327.132 466.483 326.623 461.818
C 326.402 459.793 325.609 458.362 324.893 456.534
C 324.659 455.936 324.683 455.188 325.318 454.823
C 327.294 453.687 327.688 458.448 328.065 459.438
C 330.095 464.768 331.491 470.692 332.357 476.346
C 333.626 484.622 333.667 493.097 333.431 501.435
C 333.046 515.061 331.522 529.238 327.314 542.27
C 324.279 542.559 320.842 542.27 317.783 542.176
C 318.355 532.654 316.774 522.909 317.715 513.441
C 317.929 511.288 320.39 509.658 321.966 508.432
C 323.264 507.422 324.206 507.332 323.611 505.558
C 321.008 506.328 317.139 508.637 316.067 511.304
C 315.079 513.764 315.768 517.402 315.806 519.995
C 315.885 525.328 315.854 530.664 315.82 535.996
C 315.806 538.19 316.264 541.203 315.683 543.293
C 312.844 545.504 310.68 548.61 308.175 551.18
C 307.238 552.14 305.768 553.159 305.497 554.548
C 305.117 556.491 305.399 558.744 305.36 560.723
C 305.266 565.525 305.363 570.343 305.408 575.145
C 305.427 577.218 306.462 580.876 305.552 582.749
C 304.006 585.932 300.578 588.775 298.02 591.131
C 292.598 596.123 287.213 601.017 281.277 605.407
C 278.396 607.537 274.68 610.755 271.041 611.351
C 269.088 611.672 266.905 611.208 264.928 611.193
C 259.786 611.154 254.643 611.171 249.501 611.137
C 246.782 611.119 243.587 610.712 240.926 611.292
C 239.134 611.683 237.77 614.651 236.786 616.051
C 235.334 618.118 233.8 620.183 232.139 622.089
C 231.475 622.85 230.776 623.873 229.831 624.308
C 228.509 624.915 226.788 624.96 225.36 624.927
C 224.545 624.907 221.3 625.398 220.87 624.751 Z
M 292.872 586.43
C 290.842 586.484 290.123 587.317 288.573 588.574
C 286.068 590.605 283.804 592.915 281.527 595.197
C 280.545 596.182 279.33 597.117 278.566 598.289
C 278.038 599.097 278.541 599.697 278.328 600.308
C 276.496 601.566 273.144 600.913 271.008 600.901
C 265.019 600.868 259.012 601.091 253.028 600.843
C 251.667 599.883 251.139 598.603 249.343 598.266
C 243 597.074 242.759 607.625 249.159 606.69
C 251.299 606.377 251.744 604.56 253.369 603.646
C 258.756 603.472 264.175 603.49 269.565 603.459
C 272.036 603.444 274.966 603.876 277.36 603.22
C 278.684 602.352 279.766 600.91 280.96 599.857
C 284.259 596.95 287.527 593.994 290.7 590.948
C 292.043 589.658 294.563 588.12 295.194 586.309
C 296.145 583.582 295.397 579.856 295.388 576.999
C 295.367 570.692 295.513 564.365 295.483 558.08
C 296.64 557.465 297.933 557.104 298.561 555.824
C 300.37 552.143 297.107 548.71 293.351 549.435
C 291.088 550.314 289.701 553.772 291.113 555.919
C 291.729 556.856 292.839 557.169 293.655 557.849
C 293.828 560.216 293.518 562.631 293.502 565.005
C 293.471 569.621 293.64 574.246 293.639 578.865
C 293.638 580.875 294.223 584.764 292.872 586.43 Z
M 251.933 594.009
C 251.66 595.778 255.614 595.329 256.762 595.329
C 260.59 595.328 264.417 595.32 268.245 595.314
C 270.129 595.312 272.398 595.606 274.194 594.946
C 277.293 593.022 279.706 589.871 282.224 587.28
C 283.204 586.272 284.643 585.175 285.041 583.761
C 286.005 580.344 284.921 575.948 284.88 572.425
C 286.279 570.142 289.442 567.622 286.592 564.887
C 285.779 564.108 284.576 563.869 283.792 563.089
C 284.086 558.786 283.519 554.436 283.992 550.126
C 284.116 549.003 283.845 547.56 284.321 546.52
C 284.945 545.154 286.585 544.391 287.672 543.46
C 288.502 543.275 290.027 544.295 291.035 544.402
C 294.053 544.722 297.105 544.709 300.136 544.721
C 301.606 544.727 303.327 545.011 304.744 544.578
C 306.433 543.427 308.73 541.653 309.573 539.733
C 310.494 537.639 309.942 534.742 309.829 532.534
C 309.612 528.29 309.567 524.037 309.443 519.79
C 309.39 517.995 308.96 515.635 309.348 513.909
C 314.026 511.845 311.261 505.179 306.627 505.687
C 303.823 505.994 302.221 509.398 303.594 511.832
C 304.359 513.187 305.827 513.861 307.286 514.125
C 307.543 520.189 306.844 526.296 307.486 532.357
C 307.863 535.917 308.32 539.941 304.722 542.153
C 302.668 543.416 298.432 542.617 296.106 542.565
C 294.251 542.524 291.451 542.886 289.781 542.174
C 290.445 540.787 292.115 539.618 293.229 538.55
C 295.307 536.56 296.986 534.143 299.008 532.175
C 299.866 531.34 300.773 530.794 301.432 529.757
C 301.676 529.138 301.811 528.572 301.792 527.903
C 301.627 522.004 291.76 523.883 294.075 529.591
C 294.569 530.394 296.298 531.582 296.374 532.433
C 293.075 535.585 289.927 538.987 286.292 541.772
C 284.927 542.818 282.356 544.31 281.922 546.074
C 280.991 549.86 281.762 554.786 281.826 558.674
C 281.845 559.811 282.37 562.716 281.789 563.641
C 279.302 564.577 277.548 567.456 279.309 569.917
C 280.032 570.927 281.495 571.472 282.614 571.875
C 283.07 572.446 282.729 573.775 282.736 574.503
C 282.76 577.154 283.483 580.271 282.797 582.859
C 281.145 585.414 278.45 587.535 276.36 589.74
C 275.4 590.754 274.257 592.179 272.828 592.488
C 266.272 593.905 257.961 590.426 251.933 594.009 Z
M 259.018 579.611
C 258.985 580.372 259.137 581.044 259.532 581.707
C 262.798 587.199 269.696 578.913 264.519 575.978
C 264.015 575.106 264.637 574.289 264.804 573.383
C 265.064 571.974 265.121 570.399 265.181 568.966
C 265.201 568.478 265.355 566.838 264.845 566.522
C 264.14 566.085 263.968 567.88 263.914 568.225
C 263.542 570.605 263.542 573.44 262.748 575.709
C 261.144 576.469 260.163 576.851 259.246 578.469
C 259.166 578.85 259.104 579.231 259.018 579.611 Z
M 264.94 526.059
C 264.468 528.484 265.292 530.42 267.352 531.763
C 268.012 533.888 267.296 537.25 267.242 539.491
C 267.101 545.412 267.036 551.333 266.899 557.253
C 266.85 559.391 266.533 561.552 266.65 563.69
C 266.667 564.018 266.757 565.367 267.173 565.499
C 267.458 565.589 268.175 564.186 268.301 563.991
C 269.43 562.246 269.236 559.887 269.272 557.892
C 269.426 549.336 268.589 540.381 269.495 531.885
C 270.924 530.785 272.408 530.087 273.019 528.221
C 274.539 523.577 266.575 521.505 264.94 526.059 Z
M 321.923 491.113
C 321.724 493.56 324.44 493.832 324.945 495.812
C 325.535 498.125 324.95 501.092 324.937 503.479
C 324.928 504.968 325.499 506.916 325.205 508.315
C 324.153 509.048 322.916 510.176 322.446 511.402
C 321.334 514.309 324.584 517.212 327.415 516.614
C 328.909 516.299 329.78 515.02 330.273 513.677
C 331.021 510.671 329.479 509.211 327.042 507.92
C 326.74 505.195 327.058 502.139 327.128 499.387
C 327.158 498.213 326.916 496.828 327.376 495.755
C 328.711 494.844 330.185 494.049 330.758 492.416
C 331.686 489.149 328.349 486.077 325.145 487.047
C 323.286 487.61 322.336 489.361 321.923 491.113 Z
M 322.947 525.581
C 322.742 527.634 322.192 531.234 323.529 532.977
C 324.764 533.317 325.885 533.486 327.148 533.159
C 328.776 531.855 328.249 528.429 328.31 526.553
C 328.333 525.85 328.429 524.959 328.087 524.326
C 326.082 522.456 323.715 522.893 322.947 525.581 Z"
opacity="1" fill="rgb(35,158,212)" fill-rule="evenodd" />
<path d="
M 226.028 505.396
C 226.97 505.794 227.525 506.371 228.255 507.05
C 228.307 510.957 227.374 515.407 228.394 519.232
C 228.95 521.318 230.855 522.476 232.219 524
C 234.951 527.053 237.527 529.728 240.718 532.31
C 240.976 532.875 241.101 533.215 240.535 533.587
C 238.567 533.991 236.626 531.732 235.39 530.479
C 233.677 528.743 232.223 526.78 230.556 525.01
C 227.967 522.26 225.962 521.441 225.822 517.288
C 225.742 514.913 226.065 512.669 226.34 510.323
C 226.474 509.173 226.856 507.992 226.175 506.954
C 225.904 506.635 225.154 505.569 226.028 505.396 Z"
opacity="0.996" fill="rgb(66,186,242)" fill-rule="evenodd" />
<path d="
M 229.44 586.607
C 229.647 585.43 229.809 584.38 230.365 583.306
C 231.493 582.842 232.539 583.955 232.965 584.979
C 233.72 586.791 233.074 589.07 232.156 590.693
C 231.436 591.222 230.936 591.185 230.221 590.68
C 229.671 589.479 229.417 587.932 229.44 586.607 Z"
opacity="1" fill="rgb(13,52,124)" fill-rule="evenodd" />
<path d="
M 240.072 513.884
C 240.517 514.748 241.097 515.448 241.829 516.086
C 243.457 522.027 235.985 524.674 233.48 518.996
C 232.919 515.435 236.699 511.707 240.072 513.884 Z
M 235.881 517.56
C 235.864 518.746 236.342 519.653 237.401 520.233
C 238.635 520.312 240.137 519.734 240.414 518.392
C 240.541 515.483 236.653 514.56 235.881 517.56 Z"
opacity="1" fill="rgb(8,19,45)" fill-rule="evenodd" />
<path d="
M 234.048 622.634
C 235.249 620.518 236.868 618.723 238.275 616.759
C 238.991 615.761 239.835 614.344 241.021 613.854
C 242.44 613.268 244.495 613.629 246.002 613.626
C 249.837 613.62 253.672 613.667 257.507 613.7
C 259.918 613.721 262.319 613.765 264.729 613.688
C 265.239 613.672 266.723 613.479 267.003 614.067
C 267.184 614.449 266.007 614.743 265.852 614.774
C 264.134 615.115 262.737 616.07 261.186 616.832
C 256.6 619.085 250.849 620.207 245.88 621.178
C 243.833 621.578 241.822 622.098 239.797 622.541
C 239.353 622.639 238.049 623.098 238.298 622.303
C 241.271 619.585 245.376 620.567 249.018 619.984
C 249.69 619.876 249.57 619.084 249.341 618.658
C 247.07 616.912 240.964 617.283 238.795 619.011
C 237.499 620.044 236.572 621.447 235.324 622.508
C 235.094 622.703 233.795 623.791 233.865 623.052
C 233.926 622.913 233.987 622.774 234.048 622.634 Z"
opacity="0.996" fill="rgb(19,127,191)" fill-rule="evenodd" />
<path d="
M 235.881 517.56
C 236.653 514.56 240.541 515.483 240.414 518.392
C 240.137 519.734 238.635 520.312 237.401 520.233
C 236.342 519.653 235.864 518.746 235.881 517.56 Z"
opacity="1" fill="rgb(13,58,133)" fill-rule="evenodd" />
<path d="
M 235.825 574.046
C 236.971 572.014 240.324 572.239 240.196 574.904
C 239.679 575.99 238.392 576.155 237.328 576.074
C 236.46 575.643 235.975 575.001 235.825 574.046 Z"
opacity="1" fill="rgb(8,58,134)" fill-rule="evenodd" />
<path d="
M 236.868 560.957
C 237.264 560.502 237.757 559.851 238.38 559.7
C 241.228 559.011 242.623 563.472 239.805 564.562
C 239.248 564.777 238.694 564.718 238.116 564.662
C 236.744 564.042 236.262 562.28 236.868 560.957 Z"
opacity="1" fill="rgb(18,57,126)" fill-rule="evenodd" />
<path d="
M 250.811 529.597
C 251.2 530.838 251.406 532.14 251.238 533.437
C 250.163 538.228 243.709 537.417 242.422 533.205
C 241.463 530.068 245.24 527.364 248.039 527.82
C 249.187 528.008 250.017 528.822 250.811 529.597 Z
M 245 532.599
C 245.265 533.206 245.691 533.631 246.177 534.072
C 248.099 534.595 249.721 531.913 248.247 530.471
C 246.941 530.047 245.482 530.97 244.964 532.172
C 244.976 532.315 244.988 532.457 245 532.599 Z"
opacity="1" fill="rgb(8,17,38)" fill-rule="evenodd" />
<path d="
M 244.343 547.538
C 246.32 543.426 253.754 544.466 253.061 549.387
C 251.15 554.322 243.124 553.268 244.343 547.538 Z
M 246.818 548.51
C 247.157 550.36 249.455 550.705 250.204 548.847
C 250.264 547.976 249.791 547.447 248.965 547.24
C 248.227 547.373 247.667 547.697 247.064 548.137
C 246.982 548.261 246.9 548.386 246.818 548.51 Z"
opacity="1" fill="rgb(6,20,53)" fill-rule="evenodd" />
<path d="
M 278.328 600.308
C 281.911 597.731 284.952 594.441 288.027 591.297
C 289.604 589.684 291.546 588.263 292.872 586.43
C 294.223 584.764 293.638 580.875 293.639 578.865
C 293.64 574.246 293.471 569.621 293.502 565.005
C 293.518 562.631 293.828 560.216 293.655 557.849
C 292.839 557.169 291.729 556.856 291.113 555.919
C 289.701 553.772 291.088 550.314 293.351 549.435
C 297.107 548.71 300.37 552.143 298.561 555.824
C 297.933 557.104 296.64 557.465 295.483 558.08
C 295.513 564.365 295.367 570.692 295.388 576.999
C 295.397 579.856 296.145 583.582 295.194 586.309
C 294.563 588.12 292.043 589.658 290.7 590.948
C 287.527 593.994 284.259 596.95 280.96 599.857
C 279.766 600.91 278.684 602.352 277.36 603.22
C 274.966 603.876 272.036 603.444 269.565 603.459
C 264.175 603.49 258.756 603.472 253.369 603.646
C 251.744 604.56 251.299 606.377 249.159 606.69
C 242.759 607.625 243 597.074 249.343 598.266
C 251.139 598.603 251.667 599.883 253.028 600.843
C 259.012 601.091 265.019 600.868 271.008 600.901
C 273.144 600.913 276.496 601.566 278.328 600.308 Z
M 246.446 601.463
C 245.003 604.193 249.502 605.203 250.575 602.767
C 250.794 602.271 250.515 601.593 250.365 601.124
C 249.484 600.005 247.388 600.798 246.446 601.463 Z
M 292.964 552.579
C 292.806 553.381 292.728 554.163 292.939 554.959
C 296.356 557.674 298.859 552.749 295.064 551.14
C 294.034 551.269 293.463 551.658 292.964 552.579 Z"
opacity="0.996" fill="rgb(10,39,90)" fill-rule="evenodd" />
<path d="
M 245 532.599
C 244.988 532.457 244.976 532.315 244.964 532.172
C 245.482 530.97 246.941 530.047 248.247 530.471
C 249.721 531.913 248.099 534.595 246.177 534.072
C 245.691 533.631 245.265 533.206 245 532.599 Z"
opacity="1" fill="rgb(12,61,142)" fill-rule="evenodd" />
<path d="
M 246.446 601.463
C 247.388 600.798 249.484 600.005 250.365 601.124
C 250.515 601.593 250.794 602.271 250.575 602.767
C 249.502 605.203 245.003 604.193 246.446 601.463 Z"
opacity="1" fill="rgb(20,125,201)" fill-rule="evenodd" />
<path d="
M 246.818 548.51
C 246.9 548.386 246.982 548.261 247.064 548.137
C 247.667 547.697 248.227 547.373 248.965 547.24
C 249.791 547.447 250.264 547.976 250.204 548.847
C 249.455 550.705 247.157 550.36 246.818 548.51 Z"
opacity="1" fill="rgb(9,61,153)" fill-rule="evenodd" />
<path d="
M 250.296 489.938
C 253.094 486.332 256.302 482.986 259.267 479.515
C 259.735 479.442 260.384 480.79 260.666 481.152
C 261.783 482.587 263.034 483.901 264.353 485.152
C 265.783 486.508 269.485 488.963 269.68 491.068
C 269.817 492.551 268.015 494.847 267.387 496.144
C 265.36 500.328 263.765 504.713 261.766 508.909
C 261.229 510.037 260.651 511.199 260.251 512.382
C 260.116 512.781 260.003 513.681 259.578 513.874
C 259.274 513.498 259.334 512.831 259.167 512.37
C 258.522 510.598 257.834 508.816 257.098 507.08
C 255.594 503.53 254.07 499.963 252.414 496.481
C 251.502 494.564 250.154 492.591 250.032 490.428
C 250.12 490.264 250.208 490.101 250.296 489.938 Z"
opacity="1" fill="rgb(4,44,103)" fill-rule="evenodd" />
<path d="
M 251.933 594.009
C 257.961 590.426 266.272 593.905 272.828 592.488
C 274.257 592.179 275.4 590.754 276.36 589.74
C 278.45 587.535 281.145 585.414 282.797 582.859
C 283.483 580.271 282.76 577.154 282.736 574.503
C 282.729 573.775 283.07 572.446 282.614 571.875
C 281.495 571.472 280.032 570.927 279.309 569.917
C 277.548 567.456 279.302 564.577 281.789 563.641
C 282.37 562.716 281.845 559.811 281.826 558.674
C 281.762 554.786 280.991 549.86 281.922 546.074
C 282.356 544.31 284.927 542.818 286.292 541.772
C 289.927 538.987 293.075 535.585 296.374 532.433
C 296.298 531.582 294.569 530.394 294.075 529.591
C 291.76 523.883 301.627 522.004 301.792 527.903
C 301.811 528.572 301.676 529.138 301.432 529.757
C 300.773 530.794 299.866 531.34 299.008 532.175
C 296.986 534.143 295.307 536.56 293.229 538.55
C 292.115 539.618 290.445 540.787 289.781 542.174
C 291.451 542.886 294.251 542.524 296.106 542.565
C 298.432 542.617 302.668 543.416 304.722 542.153
C 308.32 539.941 307.863 535.917 307.486 532.357
C 306.844 526.296 307.543 520.189 307.286 514.125
C 305.827 513.861 304.359 513.187 303.594 511.832
C 302.221 509.398 303.823 505.994 306.627 505.687
C 311.261 505.179 314.026 511.845 309.348 513.909
C 308.96 515.635 309.39 517.995 309.443 519.79
C 309.567 524.037 309.612 528.29 309.829 532.534
C 309.942 534.742 310.494 537.639 309.573 539.733
C 308.73 541.653 306.433 543.427 304.744 544.578
C 303.327 545.011 301.606 544.727 300.136 544.721
C 297.105 544.709 294.053 544.722 291.035 544.402
C 290.027 544.295 288.502 543.275 287.672 543.46
C 286.585 544.391 284.945 545.154 284.321 546.52
C 283.845 547.56 284.116 549.003 283.992 550.126
C 283.519 554.436 284.086 558.786 283.792 563.089
C 284.576 563.869 285.779 564.108 286.592 564.887
C 289.442 567.622 286.279 570.142 284.88 572.425
C 284.921 575.948 286.005 580.344 285.041 583.761
C 284.643 585.175 283.204 586.272 282.224 587.28
C 279.706 589.871 277.293 593.022 274.194 594.946
C 272.398 595.606 270.129 595.312 268.245 595.314
C 264.417 595.32 260.59 595.328 256.762 595.329
C 255.614 595.329 251.66 595.778 251.933 594.009 Z
M 281.003 567.583
C 281.23 571.044 286.577 569.634 285.051 566.819
C 283.625 565.224 281.522 565.306 281.003 567.583 Z
M 295.954 526.961
C 295.016 528.645 296.354 530.14 298.156 529.776
C 299.459 529.206 299.717 527.996 299.186 526.766
C 298.141 525.801 296.969 526.109 295.954 526.961 Z
M 304.969 510.137
C 305.368 512.881 310.323 512.905 309.937 510.079
C 309.54 507.168 304.526 507.084 304.969 510.137 Z"
opacity="1" fill="rgb(12,35,88)" fill-rule="evenodd" />
<path d="
M 259.018 579.611
C 259.104 579.231 259.166 578.85 259.246 578.469
C 260.163 576.851 261.144 576.469 262.748 575.709
C 263.542 573.44 263.542 570.605 263.914 568.225
C 263.968 567.88 264.14 566.085 264.845 566.522
C 265.355 566.838 265.201 568.478 265.181 568.966
C 265.121 570.399 265.064 571.974 264.804 573.383
C 264.637 574.289 264.015 575.106 264.519 575.978
C 269.696 578.913 262.798 587.199 259.532 581.707
C 259.137 581.044 258.985 580.372 259.018 579.611 Z
M 260.51 579.65
C 260.753 580.568 261.149 581.35 262.04 581.771
C 262.49 581.807 262.866 581.789 263.303 581.667
C 267.165 580.585 263.449 574.824 260.974 578.339
C 260.655 578.792 260.562 579.112 260.51 579.65 Z"
opacity="0.996" fill="rgb(21,42,95)" fill-rule="evenodd" />
<path d="
M 260.51 579.65
C 260.562 579.112 260.655 578.792 260.974 578.339
C 263.449 574.824 267.165 580.585 263.303 581.667
C 262.866 581.789 262.49 581.807 262.04 581.771
C 261.149 581.35 260.753 580.568 260.51 579.65 Z"
opacity="0.996" fill="rgb(2,131,203)" fill-rule="evenodd" />
<path d="
M 264.94 526.059
C 266.575 521.505 274.539 523.577 273.019 528.221
C 272.408 530.087 270.924 530.785 269.495 531.885
C 268.589 540.381 269.426 549.336 269.272 557.892
C 269.236 559.887 269.43 562.246 268.301 563.991
C 268.175 564.186 267.458 565.589 267.173 565.499
C 266.757 565.367 266.667 564.018 266.65 563.69
C 266.533 561.552 266.85 559.391 266.899 557.253
C 267.036 551.333 267.101 545.412 267.242 539.491
C 267.296 537.25 268.012 533.888 267.352 531.763
C 265.292 530.42 264.468 528.484 264.94 526.059 Z
M 266.83 526.501
C 266.745 527.887 266.897 529.514 268.59 529.734
C 269.127 529.703 269.68 529.608 270.138 529.301
C 273.498 527.047 268.662 522.74 266.83 526.501 Z"
opacity="1" fill="rgb(14,28,77)" fill-rule="evenodd" />
<path d="
M 321.967 442.362
C 320.682 442.148 316.3 444.046 316.864 445.58
C 316.112 444.457 314.9 445.062 313.799 445.339
C 310.885 446.07 308.052 447.117 305.166 447.951
C 304.18 448.235 301.817 448.604 302.539 449.95
C 301.211 449.029 300.033 449.574 298.597 449.997
C 295.764 450.831 292.138 451.743 289.906 453.771
C 286.053 454.758 281.368 458.108 279.097 461.333
C 277.326 462.799 275.382 464.278 273.455 465.54
C 272.928 465.885 271.601 466.469 271.626 467.196
C 270.024 467.692 268.103 470 266.588 470.032
C 266.71 468.972 267.687 467.926 268.213 467.005
C 269.541 464.68 271.019 462.478 272.551 460.28
C 278.547 451.675 287.039 445.721 296.768 441.987
C 303.032 439.582 310.122 438.77 316.077 435.641
C 322.298 432.372 327.982 427.286 331.491 421.14
C 332.977 418.537 333.486 415.502 334.924 412.938
C 336.545 412.814 336.336 415.188 336.211 416.294
C 335.823 419.723 335.56 423.387 334.454 426.677
C 333.048 430.856 330.349 435.418 326.88 438.218
C 325.64 439.219 324.433 440.188 323.148 441.133
C 322.741 441.432 321.931 441.874 321.967 442.362 Z"
opacity="1" fill="rgb(1,1,1)" fill-rule="evenodd" />
<path d="
M 266.83 526.501
C 268.662 522.74 273.498 527.047 270.138 529.301
C 269.68 529.608 269.127 529.703 268.59 529.734
C 266.897 529.514 266.745 527.887 266.83 526.501 Z"
opacity="0.996" fill="rgb(44,204,243)" fill-rule="evenodd" />
<path d="
M 270.393 568.053
C 270.914 567.069 271.693 566.243 272.869 566.436
C 274.252 567.485 275.579 569.439 274.072 570.969
C 273.026 571.628 271.527 571.368 270.638 570.596
C 270.195 569.764 270.126 568.955 270.393 568.053 Z"
opacity="0.996" fill="rgb(22,149,219)" fill-rule="evenodd" />
<path d="
M 279.097 461.333
C 278.821 463.642 279.569 466.075 280.77 468.033
C 281.803 469.717 283.148 471.16 284.948 472.015
C 286.42 472.714 287.873 473 289.504 472.948
C 295.533 472.758 299.185 467.288 298.432 461.563
C 297.874 457.319 294.728 452.959 289.906 453.771
C 292.138 451.743 295.764 450.831 298.597 449.997
C 300.033 449.574 301.211 449.029 302.539 449.95
C 304.952 451.55 306.07 454.916 306.976 457.51
C 310.697 468.162 305.976 479.315 294.915 482.757
C 289.814 484.345 281.808 483.111 277.659 479.549
C 276.632 478.668 275.291 477.554 274.537 476.429
C 273.663 475.121 273.64 473.838 272.26 472.889
C 271.584 471.355 271.751 468.885 271.626 467.196
C 271.601 466.469 272.928 465.885 273.455 465.54
C 275.382 464.278 277.326 462.799 279.097 461.333 Z"
opacity="1" fill="rgb(26,138,191)" fill-rule="evenodd" />
<path d="
M 292.872 586.43
C 291.546 588.263 289.604 589.684 288.027 591.297
C 284.952 594.441 281.911 597.731 278.328 600.308
C 278.541 599.697 278.038 599.097 278.566 598.289
C 279.33 597.117 280.545 596.182 281.527 595.197
C 283.804 592.915 286.068 590.605 288.573 588.574
C 290.123 587.317 290.842 586.484 292.872 586.43 Z"
opacity="1" fill="rgb(67,168,218)" fill-rule="evenodd" />
<path d="
M 281.003 567.583
C 281.522 565.306 283.625 565.224 285.051 566.819
C 286.577 569.634 281.23 571.044 281.003 567.583 Z"
opacity="0.996" fill="rgb(24,169,224)" fill-rule="evenodd" />
<path d="
M 288.451 508.568
C 288.893 507.787 289.456 506.825 290.426 506.652
C 291.853 506.397 293.576 507.89 293.381 509.386
C 293.048 511.943 289.619 512.013 288.51 510.039
C 288.373 509.502 288.37 509.117 288.451 508.568 Z"
opacity="0.996" fill="rgb(23,171,227)" fill-rule="evenodd" />
<path d="
M 292.964 552.579
C 293.463 551.658 294.034 551.269 295.064 551.14
C 298.859 552.749 296.356 557.674 292.939 554.959
C 292.728 554.163 292.806 553.381 292.964 552.579 Z"
opacity="0.996" fill="rgb(43,196,230)" fill-rule="evenodd" />
<path d="
M 295.954 526.961
C 296.969 526.109 298.141 525.801 299.186 526.766
C 299.717 527.996 299.459 529.206 298.156 529.776
C 296.354 530.14 295.016 528.645 295.954 526.961 Z"
opacity="1" fill="rgb(50,209,238)" fill-rule="evenodd" />
<path d="
M 304.969 510.137
C 304.526 507.084 309.54 507.168 309.937 510.079
C 310.323 512.905 305.368 512.881 304.969 510.137 Z"
opacity="0.996" fill="rgb(17,153,211)" fill-rule="evenodd" />
<path d="
M 307.985 555.062
C 310.156 552.26 312.679 549.715 315.118 547.146
C 315.988 546.229 316.835 544.819 318.074 544.393
C 319.184 544.011 320.823 544.343 321.997 544.337
C 322.978 544.333 325.704 543.811 326.443 544.418
C 324.817 551.048 321.425 557.528 318.186 563.477
C 317.153 565.374 316.432 567.412 315.227 569.196
C 313.524 571.715 311.883 574.316 310.244 576.879
C 309.741 577.665 309.269 578.483 308.799 579.289
C 308.716 579.433 307.833 580.569 307.934 580.26
C 308.1 578.21 307.723 576.059 307.693 573.998
C 307.635 569.994 307.669 565.985 307.708 561.982
C 307.728 559.95 307.197 556.94 307.985 555.062 Z
M 310.444 556.912
C 309.605 559.709 309.97 563.729 310.253 566.623
C 310.865 567.051 311.982 566.808 312.724 566.797
C 313.444 566.743 315.284 567.287 315.881 566.848
C 316.401 566.467 315.808 564.694 315.711 564.174
C 315.267 561.816 315.659 558.813 314.824 556.605
C 313.355 556.711 311.911 556.773 310.444 556.912 Z"
opacity="1" fill="rgb(49,185,229)" fill-rule="evenodd" />
<path d="
M 310.444 556.912
C 311.911 556.773 313.355 556.711 314.824 556.605
C 315.659 558.813 315.267 561.816 315.711 564.174
C 315.808 564.694 316.401 566.467 315.881 566.848
C 315.284 567.287 313.444 566.743 312.724 566.797
C 311.982 566.808 310.865 567.051 310.253 566.623
C 309.97 563.729 309.605 559.709 310.444 556.912 Z
M 312.26 558.929
C 312.211 560.836 311.949 563.368 312.45 565.216
C 312.582 565.702 313.801 567.343 313.836 566.037
C 313.768 564.279 313.967 562.52 313.91 560.761
C 313.9 560.471 313.849 558.991 313.545 558.823
C 313.269 558.67 312.494 558.882 312.26 558.929 Z"
opacity="0.996" fill="rgb(15,46,107)" fill-rule="evenodd" />
<path d="
M 312.26 558.929
C 312.494 558.882 313.269 558.67 313.545 558.823
C 313.849 558.991 313.9 560.471 313.91 560.761
C 313.967 562.52 313.768 564.279 313.836 566.037
C 313.801 567.343 312.582 565.702 312.45 565.216
C 311.949 563.368 312.211 560.836 312.26 558.929 Z"
opacity="1" fill="rgb(18,154,208)" fill-rule="evenodd" />
<path d="
M 321.923 491.113
C 322.336 489.361 323.286 487.61 325.145 487.047
C 328.349 486.077 331.686 489.149 330.758 492.416
C 330.185 494.049 328.711 494.844 327.376 495.755
C 326.916 496.828 327.158 498.213 327.128 499.387
C 327.058 502.139 326.74 505.195 327.042 507.92
C 329.479 509.211 331.021 510.671 330.273 513.677
C 329.78 515.02 328.909 516.299 327.415 516.614
C 324.584 517.212 321.334 514.309 322.446 511.402
C 322.916 510.176 324.153 509.048 325.205 508.315
C 325.499 506.916 324.928 504.968 324.937 503.479
C 324.95 501.092 325.535 498.125 324.945 495.812
C 324.44 493.832 321.724 493.56 321.923 491.113 Z
M 324.327 490.532
C 323.229 493.496 327.349 494.075 328.577 491.742
C 329.717 489.576 325.369 487.717 324.327 490.532 Z
M 324.924 511.561
C 324.736 512.474 324.766 513.345 325.497 513.988
C 326.218 514.184 326.786 514.228 327.485 513.945
C 328.35 513.262 328.361 512.166 328.112 511.171
C 327.61 510.576 327.172 510.335 326.397 510.24
C 325.736 510.521 325.31 510.962 324.924 511.561 Z"
opacity="1" fill="rgb(15,30,77)" fill-rule="evenodd" />
<path d="
M 322.947 525.581
C 323.715 522.893 326.082 522.456 328.087 524.326
C 328.429 524.959 328.333 525.85 328.31 526.553
C 328.249 528.429 328.776 531.855 327.148 533.159
C 325.885 533.486 324.764 533.317 323.529 532.977
C 322.192 531.234 322.742 527.634 322.947 525.581 Z
M 324.491 528.1
C 324.431 529.195 324.468 530.491 324.866 531.513
C 326.967 531.924 326.211 529.334 326.347 527.848
C 326.406 527.204 326.719 525.627 326.107 525.11
C 325.604 524.684 325.024 525.181 324.767 525.549
C 324.653 526.398 324.712 527.269 324.491 528.1 Z"
opacity="0.996" fill="rgb(20,28,89)" fill-rule="evenodd" />
<path d="
M 324.327 490.532
C 325.369 487.717 329.717 489.576 328.577 491.742
C 327.349 494.075 323.229 493.496 324.327 490.532 Z"
opacity="0.996" fill="rgb(14,149,216)" fill-rule="evenodd" />
<path d="
M 324.491 528.1
C 324.712 527.269 324.653 526.398 324.767 525.549
C 325.024 525.181 325.604 524.684 326.107 525.11
C 326.719 525.627 326.406 527.204 326.347 527.848
C 326.211 529.334 326.967 531.924 324.866 531.513
C 324.468 530.491 324.431 529.195 324.491 528.1 Z"
opacity="1" fill="rgb(10,181,227)" fill-rule="evenodd" />
<path d="
M 324.924 511.561
C 325.31 510.962 325.736 510.521 326.397 510.24
C 327.172 510.335 327.61 510.576 328.112 511.171
C 328.361 512.166 328.35 513.262 327.485 513.945
C 326.786 514.228 326.218 514.184 325.497 513.988
C 324.766 513.345 324.736 512.474 324.924 511.561 Z"
opacity="0.996" fill="rgb(26,178,235)" fill-rule="evenodd" />
<path d="
M 360.234 466.768
C 367.878 466.592 375.538 466.785 383.186 466.713
C 383.565 473.09 383.192 479.611 383.217 486.006
C 383.248 493.998 383.629 502.084 383.392 510.064
C 387.777 509.707 392.303 510.021 396.707 510.036
C 403.975 510.061 411.243 510.01 418.511 510.01
C 422.344 510.01 426.178 509.992 430.011 510.012
C 431.735 510.022 434.002 509.664 435.656 510.147
C 435.311 508.034 435.608 505.643 435.618 503.503
C 435.635 499.504 435.639 495.504 435.637 491.505
C 435.635 486.171 435.623 480.838 435.627 475.504
C 435.629 472.664 435.354 469.626 435.756 466.815
C 443.399 466.777 451.051 466.802 458.694 466.742
C 459.469 469.584 458.776 473.547 458.787 476.505
C 458.815 483.671 458.787 490.838 458.785 498.005
C 458.779 514.505 458.751 531.006 458.753 547.507
C 458.754 555.708 458.482 563.976 458.797 572.169
C 451.168 572.33 443.306 572.46 435.688 572.137
C 435.17 558.09 436.206 543.974 435.51 529.936
C 429.705 529.584 423.818 529.836 418.002 529.823
C 406.438 529.796 394.87 529.811 383.309 529.84
C 383.23 539.057 383.289 548.283 383.329 557.503
C 383.35 562.247 382.874 567.321 383.467 572.025
C 383.161 572.326 382.227 572.107 381.843 572.094
C 380.4 572.045 378.951 572.063 377.507 572.056
C 371.767 572.028 365.97 571.879 360.239 572.091
C 359.674 557.441 360.226 542.669 360.215 528.005
C 360.2 507.604 359.825 487.163 360.234 466.768 Z"
opacity="1" fill="rgb(9,34,87)" fill-rule="evenodd" />
<path d="
M 477.459 526.6
C 477.958 521.844 479.458 516.973 481.565 512.689
C 485.315 505.066 491.645 497.941 499.399 494.202
C 518.614 484.936 544.06 488.181 557.63 505.544
C 560.688 509.458 562.985 514.054 564.42 518.799
C 566.159 524.548 566.775 530.559 566.146 536.539
C 565.647 541.283 564.372 546.296 562.162 550.54
C 557.803 558.908 550.763 565.54 542.245 569.565
C 524.278 578.054 498.255 574.304 485.866 557.964
C 482.9 554.053 480.638 549.637 479.215 544.94
C 477.41 538.988 476.81 532.794 477.459 526.6 Z
M 499.962 526.603
C 498.495 535.137 500.716 545.1 507.654 550.723
C 514.812 556.524 526.597 556.98 534.184 551.726
C 539.299 548.184 542.554 542.532 543.56 536.43
C 544.96 527.935 542.578 517.806 535.503 512.336
C 526.769 505.583 513.255 506.42 505.679 514.573
C 502.651 517.832 500.71 522.252 499.962 526.603 Z"
opacity="1" fill="rgb(8,34,87)" fill-rule="evenodd" />
<path d="
M 577.479 526.098
C 577.929 521.69 579.209 517.357 581.049 513.34
C 594.343 484.316 639.185 480.671 658.25 505.725
C 661.195 509.595 663.462 514.021 664.88 518.672
C 666.563 524.193 667.131 530.189 666.543 535.935
C 665.222 548.829 657.818 560.799 646.654 567.499
C 624.669 580.693 589.755 573.612 580.252 548.085
C 577.605 540.976 576.708 533.643 577.479 526.098 Z
M 599.91 527.609
C 598.836 536.057 601.117 545.526 608.127 550.91
C 616.758 557.54 630.149 556.521 637.744 548.877
C 641.348 545.249 643.358 540.443 644.026 535.414
C 645.047 527.724 642.936 518.398 636.81 513.197
C 628.41 506.066 614.686 506.228 606.622 513.809
C 602.816 517.387 600.563 522.479 599.91 527.609 Z"
opacity="1" fill="rgb(8,34,88)" fill-rule="evenodd" />
<path d="
M 672.875 492.077
C 672.942 491.846 673.01 491.615 673.077 491.384
C 677.11 491.137 681.23 491.197 685.271 491.309
C 684.873 489.586 685.184 487.291 685.201 485.505
C 685.241 481.116 685.609 476.577 685.228 472.204
C 690.784 472.325 696.433 472.181 702 472.087
C 703.442 472.062 704.911 472.119 706.348 472.018
C 706.756 471.989 707.468 471.736 707.721 472.077
C 708.162 476.632 707.717 481.425 707.749 486.005
C 707.761 487.651 707.352 489.927 707.863 491.472
C 712.855 491.048 717.999 491.411 723.011 491.407
C 724.198 491.406 727.517 490.763 728.375 491.476
C 728.243 497.158 729.011 503.085 728.349 508.735
C 725.462 508.472 722.403 508.718 719.498 508.715
C 715.58 508.71 711.634 508.504 707.723 508.707
C 707.569 517.3 707.732 525.909 707.741 534.505
C 707.745 539.151 707.083 544.464 708.301 548.986
C 710.634 557.649 721.393 557.946 727.268 552.695
C 727.96 552.967 728.322 555.687 728.593 556.383
C 729.63 559.051 730.529 561.769 731.556 564.441
C 732.12 565.907 733.025 567.489 733.118 569.074
C 732.581 569.806 731.392 570.23 730.595 570.604
C 728.096 571.775 725.407 572.487 722.713 573.026
C 712.051 575.16 697.215 573.555 690.388 563.979
C 684.98 556.393 685.163 547.923 685.154 539.007
C 685.144 528.923 685.163 518.831 685.231 508.75
C 681.06 508.786 676.876 508.621 672.71 508.766
C 672.455 503.361 672.311 497.458 672.875 492.077 Z"
opacity="1" fill="rgb(10,34,87)" fill-rule="evenodd" />
<path d="
M 746.785 458.865
C 754.204 458.893 761.668 459.132 769.083 458.853
C 769.845 460.028 769.174 463.56 769.177 465
C 769.189 470.835 769.212 476.67 769.215 482.505
C 769.225 503.839 769.215 525.173 769.226 546.507
C 769.229 552.84 769.239 559.174 769.248 565.507
C 769.25 567.104 769.324 568.703 769.317 570.299
C 769.315 570.702 769.418 571.661 769.174 571.992
C 766.755 571.696 764.141 571.96 761.7 571.954
C 756.731 571.942 751.731 571.922 746.766 572.099
C 746.879 546.408 746.738 520.701 746.738 495.006
C 746.738 486.839 746.684 478.673 746.7 470.507
C 746.707 466.745 746.19 462.574 746.785 458.865 Z"
opacity="1" fill="rgb(10,34,85)" fill-rule="evenodd" />
<path d="
M 779.591 490.865
C 784.385 490.656 789.205 490.782 794.003 490.768
C 796.806 490.759 799.731 490.493 802.517 490.722
C 805.021 498.245 808.411 505.481 811.44 512.804
C 813.65 518.147 815.572 523.614 817.872 528.92
C 820.514 535.013 823.549 541.265 825.516 547.606
C 826.358 546.447 826.594 544.947 827.161 543.651
C 828.264 541.128 829.344 538.593 830.458 536.075
C 835.098 525.593 839.224 514.881 843.678 504.318
C 845.495 500.011 846.834 494.725 849.402 490.832
C 856.472 490.596 863.563 491.03 870.629 490.755
C 868.465 497.114 865.252 503.167 862.798 509.425
C 856.716 524.93 849.884 540.18 843.378 555.513
C 840.85 561.47 838.224 567.395 835.79 573.391
C 833.274 579.589 830.555 585.983 826.181 591.127
C 818.18 600.54 805.025 602.998 793.306 600.722
C 788.724 599.832 784.262 598.394 780.489 595.584
C 780.773 593.928 782.138 592.297 782.843 590.756
C 784.471 587.199 785.867 583.528 787.611 580.024
C 788.204 579.598 788.804 580.287 789.364 580.644
C 791.132 581.774 792.803 582.786 794.843 583.359
C 800.916 585.064 807.142 583.87 811.116 578.709
C 812.381 577.067 814.504 574.241 814.312 572.036
C 814.206 570.82 812.549 569.253 812.022 568.076
C 810.074 563.724 808.23 559.316 806.371 554.925
C 800.499 541.055 794.411 527.278 788.442 513.445
C 785.258 506.066 782.36 498.485 778.825 491.275
C 779.08 491.138 779.336 491.002 779.591 490.865 Z"
opacity="1" fill="rgb(10,34,86)" fill-rule="evenodd" />

</svg>